#N canvas 84 49 1718 912 12;
#X declare -path Abstractions;
#X obj 519 467 dac~;
#X obj 43 129 message2symbol;
#X obj 43 53 declare -path Abstractions;
#X obj 519 427 *~ 0.5;
#X obj 40 254 soundfiler;
#N canvas 0 50 450 250 (subpatch) 0;
#X array audioData1 20594 float 2;
#X coords 0 1 20594 -1 200 140 1;
#X restore 41 312 graph;
#X obj 40 185 message2symbol;
#X obj 518 373 tabplay~ audioData1, f 17;
#X obj 695 368 tabplay~ audioData2, f 17;
#N canvas 0 50 450 250 (subpatch) 0;
#X array audioData2 20594 float 2;
#X coords 0 1 20594 -1 200 140 1 0 0;
#X restore 251 313 graph;
#X msg 42 218 read -resize \$1 audioData1;
#X obj 235 132 message2symbol;
#X obj 236 254 soundfiler;
#X obj 236 187 message2symbol;
#X msg 238 218 read -resize \$1 audioData2;
#X obj 447 136 message2symbol;
#X obj 448 258 soundfiler;
#X obj 448 191 message2symbol;
#X msg 450 222 read -resize \$1 audioData3;
#N canvas 0 50 450 250 (subpatch) 0;
#X array audioData3 20594 float 2;
#X coords 0 1 20594 -1 200 140 1 0 0;
#X restore 38 472 graph;
#X obj 43 101 r oneOverOne;
#X msg 41 156 ../../Sounds/\$1;
#X obj 520 335 r oneOverOne_bang;
#X obj 236 103 r threeOverFour;
#X msg 238 161 ../../Sounds/\$1;
#X obj 700 331 r threeOverFour_bang;
#X obj 448 107 r sevenOverEight;
#X msg 450 165 ../../Sounds/\$1;
#N canvas 0 50 450 250 (subpatch) 0;
#X array audioData4 20594 float 2;
#X coords 0 1 20594 -1 200 140 1 0 0;
#X restore 250 470 graph;
#N canvas 0 50 450 250 (subpatch) 0;
#X array audioData5 20594 float 2;
#X coords 0 1 20594 -1 200 140 1 0 0;
#X restore 39 632 graph;
#N canvas 0 50 450 250 (subpatch) 0;
#X array audioData6 20594 float 2;
#X coords 0 1 20594 -1 200 140 1 0 0;
#X restore 256 631 graph;
#N canvas 64 64 450 250 (subpatch) 0;
#X array audioData7 20594 float 2;
#X coords 0 1 20594 -1 200 140 1 0 0;
#X restore 39 798 graph;
#N canvas 0 50 450 250 (subpatch) 0;
#X array audioData8 20594 float 2;
#X coords 0 1 20594 -1 200 140 1 0 0;
#X restore 259 796 graph;
#X obj 661 133 message2symbol;
#X obj 662 255 soundfiler;
#X obj 662 188 message2symbol;
#X msg 664 162 ../../Sounds/\$1;
#X obj 859 136 message2symbol;
#X obj 860 258 soundfiler;
#X obj 860 191 message2symbol;
#X msg 862 165 ../../Sounds/\$1;
#X obj 1063 136 message2symbol;
#X obj 1064 258 soundfiler;
#X obj 1064 191 message2symbol;
#X msg 1066 165 ../../Sounds/\$1;
#X obj 1263 143 message2symbol;
#X obj 1264 265 soundfiler;
#X obj 1264 198 message2symbol;
#X msg 1266 172 ../../Sounds/\$1;
#X obj 1469 142 message2symbol;
#X obj 1470 264 soundfiler;
#X obj 1470 197 message2symbol;
#X msg 1472 171 ../../Sounds/\$1;
#X obj 663 105 r fiveOverFour;
#X obj 860 107 r oneOverTwo;
#X obj 1064 107 r threeOverEight;
#X obj 1264 114 r oneOverFour;
#X obj 1470 113 r threeOverSixteen;
#X msg 664 219 read -resize \$1 audioData4;
#X msg 862 222 read -resize \$1 audioData5;
#X msg 1066 222 read -resize \$1 audioData6;
#X msg 1266 229 read -resize \$1 audioData7;
#X msg 1472 228 read -resize \$1 audioData8;
#X obj 864 336 r fiveOverFour_bang;
#X obj 1035 337 r oneOverTwo_bang;
#X obj 526 521 r threeOverEight_bang;
#X obj 695 519 r oneOverFour_bang;
#X obj 859 524 r threeOverSixteen_bang;
#X obj 1030 525 r sevenOverEight_bang;
#X obj 1025 562 tabplay~ audioData3, f 17;
#X obj 863 364 tabplay~ audioData4, f 17;
#X obj 1030 374 tabplay~ audioData5, f 17;
#X obj 525 549 tabplay~ audioData6, f 17;
#X obj 690 556 tabplay~ audioData7, f 17;
#X obj 858 552 tabplay~ audioData8, f 17;
#N canvas 0 50 450 250 (subpatch) 0;
#X array audioData9 20594 float 2;
#X coords 0 1 20594 -1 200 140 1 0 0;
#X restore 504 802 graph;
#N canvas 0 50 450 250 (subpatch) 0;
#X array audioData10 20594 float 2;
#X coords 0 1 20594 -1 200 140 1 0 0;
#X restore 729 798 graph;
#N canvas 0 50 450 250 (subpatch) 0;
#X array audioData11 20594 float 2;
#X coords 0 1 20594 -1 200 140 1 0 0;
#X restore 950 799 graph;
#X obj 1667 147 message2symbol;
#X obj 1668 269 soundfiler;
#X obj 1668 202 message2symbol;
#X msg 1670 176 ../../Sounds/\$1;
#X obj 1881 144 message2symbol;
#X obj 1882 266 soundfiler;
#X obj 1882 199 message2symbol;
#X msg 1884 173 ../../Sounds/\$1;
#X obj 2079 147 message2symbol;
#X obj 2080 269 soundfiler;
#X obj 2080 202 message2symbol;
#X msg 2082 176 ../../Sounds/\$1;
#X obj 1668 118 r kick;
#X msg 1670 233 read -resize \$1 audioData9;
#X obj 1883 116 r snare;
#X msg 1884 230 read -resize \$1 audioData10;
#X obj 2080 118 r hihat;
#X msg 2082 233 read -resize \$1 audioData11;
#X obj 523 626 r kick_bang;
#X obj 518 663 tabplay~ audioData9, f 17;
#X obj 687 631 r snare_bang;
#X obj 858 632 r hihat_bang;
#X obj 686 659 tabplay~ audioData10, f 17;
#X obj 853 669 tabplay~ audioData11, f 17;
#N canvas 0 50 450 250 (subpatch) 0;
#X array audioData12 20594 float 2;
#X coords 0 1 20594 -1 200 140 1 0 0;
#X restore 1170 798 graph;
#N canvas 0 50 450 250 (subpatch) 0;
#X array audioData13 20594 float 2;
#X coords 0 1 20594 -1 200 140 1 0 0;
#X restore 1391 799 graph;
#X obj 1297 600 message2symbol;
#X obj 1298 722 soundfiler;
#X obj 1298 655 message2symbol;
#X msg 1300 629 ../../Sounds/\$1;
#X obj 1503 599 message2symbol;
#X obj 1504 721 soundfiler;
#X obj 1504 654 message2symbol;
#X msg 1506 628 ../../Sounds/\$1;
#X obj 1298 571 r basshigh;
#X msg 1300 686 read -resize \$1 audioData12;
#X obj 1504 570 r basslow;
#X msg 1506 685 read -resize \$1 audioData13;
#X obj 991 635 r basshigh_bang;
#X obj 1162 636 r basslow_bang;
#X obj 990 663 tabplay~ audioData12, f 17;
#X obj 1157 673 tabplay~ audioData13, f 17;
#X connect 1 0 21 0;
#X connect 3 0 0 0;
#X connect 3 0 0 1;
#X connect 6 0 10 0;
#X connect 7 0 3 0;
#X connect 7 1 3 1;
#X connect 8 0 3 0;
#X connect 8 1 3 1;
#X connect 10 0 4 0;
#X connect 11 0 24 0;
#X connect 13 0 14 0;
#X connect 14 0 12 0;
#X connect 15 0 27 0;
#X connect 17 0 18 0;
#X connect 18 0 16 0;
#X connect 20 0 1 0;
#X connect 21 0 6 0;
#X connect 22 0 7 0;
#X connect 23 0 11 0;
#X connect 24 0 13 0;
#X connect 25 0 8 0;
#X connect 26 0 15 0;
#X connect 27 0 17 0;
#X connect 33 0 36 0;
#X connect 35 0 58 0;
#X connect 36 0 35 0;
#X connect 37 0 40 0;
#X connect 39 0 59 0;
#X connect 40 0 39 0;
#X connect 41 0 44 0;
#X connect 43 0 60 0;
#X connect 44 0 43 0;
#X connect 45 0 48 0;
#X connect 47 0 61 0;
#X connect 48 0 47 0;
#X connect 49 0 52 0;
#X connect 51 0 62 0;
#X connect 52 0 51 0;
#X connect 53 0 33 0;
#X connect 54 0 37 0;
#X connect 55 0 41 0;
#X connect 56 0 45 0;
#X connect 57 0 49 0;
#X connect 58 0 34 0;
#X connect 59 0 38 0;
#X connect 60 0 42 0;
#X connect 61 0 46 0;
#X connect 62 0 50 0;
#X connect 63 0 70 0;
#X connect 64 0 71 0;
#X connect 65 0 72 0;
#X connect 66 0 73 0;
#X connect 67 0 74 0;
#X connect 68 0 69 0;
#X connect 69 0 3 0;
#X connect 69 1 3 1;
#X connect 70 0 3 0;
#X connect 70 1 3 1;
#X connect 71 0 3 0;
#X connect 71 1 3 1;
#X connect 72 0 3 0;
#X connect 72 1 3 1;
#X connect 73 0 3 0;
#X connect 73 1 3 1;
#X connect 74 0 3 0;
#X connect 74 1 3 1;
#X connect 78 0 81 0;
#X connect 80 0 91 0;
#X connect 81 0 80 0;
#X connect 82 0 85 0;
#X connect 84 0 93 0;
#X connect 85 0 84 0;
#X connect 86 0 89 0;
#X connect 88 0 95 0;
#X connect 89 0 88 0;
#X connect 90 0 78 0;
#X connect 91 0 79 0;
#X connect 92 0 82 0;
#X connect 93 0 83 0;
#X connect 94 0 86 0;
#X connect 95 0 87 0;
#X connect 96 0 97 0;
#X connect 97 0 3 0;
#X connect 98 0 100 0;
#X connect 99 0 101 0;
#X connect 100 0 3 0;
#X connect 101 0 3 0;
#X connect 104 0 107 0;
#X connect 106 0 113 0;
#X connect 107 0 106 0;
#X connect 108 0 111 0;
#X connect 110 0 115 0;
#X connect 111 0 110 0;
#X connect 112 0 104 0;
#X connect 113 0 105 0;
#X connect 114 0 108 0;
#X connect 115 0 109 0;
#X connect 116 0 118 0;
#X connect 117 0 119 0;
#X connect 118 0 3 0;
#X connect 118 1 3 1;
#X connect 119 0 3 0;
#X connect 119 1 3 1;
